<svg id="Layer_1" data-name="Layer 1" xmlns="http://www.w3.org/2000/svg" viewBox="0 0 254.7 123.26"><defs><style>.cls-1,.cls-8{fill:#231f20;}.cls-2,.cls-3,.cls-4,.cls-5,.cls-6,.cls-7{fill:#221f1f;}.cls-3,.cls-4,.cls-5,.cls-6,.cls-7,.cls-8{stroke:#221f1f;stroke-miterlimit:10;}.cls-3{stroke-width:0.25px;}.cls-4{stroke-width:2px;}.cls-6{stroke-width:0.5px;}.cls-7{opacity:0.7;}</style></defs><title>backyard-brewery-logo</title><path class="cls-1" d="M132.07,71.78c-1.95-8.2-16.08-9.25-16.08-9.25,1.24,20.2,14,17,14,17v5.13h4.07V79.49s12.8,3.24,14-17C148.16,62.53,134,63.58,132.07,71.78Z" transform="translate(-5.79 -2.92)"/><path class="cls-1" d="M126.11,61.27l6,5.88,6-5.88s-1.51-6.46-6-9.33C132.07,51.94,127.86,54.46,126.11,61.27Z" transform="translate(-5.79 -2.92)"/><path class="cls-1" d="M144.79,51.94c-1.91.6-6.65,4.21-6.65,4.21s1.9,4.1,1.84,6.23a24.08,24.08,0,0,1,6.54-1.57h0a10.18,10.18,0,0,0-1.39-8.36Z" transform="translate(-5.79 -2.92)"/><path class="cls-1" d="M132.07,40.8a23.51,23.51,0,0,0-9.46,10.59,48.91,48.91,0,0,1,4.51,3.29s2.33-4.35,4.95-5.66c2.63,1.31,5,5.66,5,5.66a49.51,49.51,0,0,1,4.52-3.29A23.5,23.5,0,0,0,132.07,40.8Z" transform="translate(-5.79 -2.92)"/><path class="cls-1" d="M119.36,51.94c1.9.6,6.65,4.21,6.65,4.21s-1.9,4.1-1.84,6.23a24.2,24.2,0,0,0-6.54-1.57h0A10.22,10.22,0,0,1,119,52.45Z" transform="translate(-5.79 -2.92)"/><path class="cls-2" d="M44.36,103.1v22.08H38.83V68.57l5.53,0Z" transform="translate(-5.79 -2.92)"/><path class="cls-3" d="M38.91,97.05V68.54H58.35s13.43-.84,13.43,12.84c0,8.73-4.63,12.62-8,14.3a11.72,11.72,0,0,1-5.23,1.18Zm5.45-5.49H57.6c4.91,0,9.12-3.47,9.49-8,0-.39,0-.8,0-1.23a8.53,8.53,0,0,0-4.59-8.09,10.68,10.68,0,0,0-5-1.16H44.36Z" transform="translate(-5.79 -2.92)"/><path class="cls-4" d="M70.84,125.18h-.2a11.64,11.64,0,0,1-10.32-6.68L50.73,97l4.84-.17,8.19,19.42a7.44,7.44,0,0,0,2.9,3.48,7.12,7.12,0,0,0,2.27.91,9.39,9.39,0,0,0,1.91.21Z" transform="translate(-5.79 -2.92)"/><path class="cls-2" d="M196,103.1v22.08h-5.54V68.57l5.54,0Z" transform="translate(-5.79 -2.92)"/><path class="cls-3" d="M190.51,97.05V68.54h19.43s13.43-.84,13.43,12.84c0,8.73-4.62,12.62-8,14.3a11.72,11.72,0,0,1-5.23,1.18ZM196,91.56H209.2c4.91,0,9.11-3.47,9.48-8,0-.39,0-.8,0-1.23a8.53,8.53,0,0,0-4.59-8.09,10.71,10.71,0,0,0-5-1.16H196Z" transform="translate(-5.79 -2.92)"/><path class="cls-4" d="M222.43,125.18h-.19a11.62,11.62,0,0,1-10.32-6.68L202.32,97l4.84-.17,8.2,19.42a7.38,7.38,0,0,0,2.9,3.48,7,7,0,0,0,2.27.91,9.22,9.22,0,0,0,1.9.21Z" transform="translate(-5.79 -2.92)"/><path class="cls-5" d="M42.56,36.36S40.33,9.18,57.66,9.18V36.36ZM57.61,49A12.28,12.28,0,0,0,69.88,61.25h36.4v-5l-35,.09a8.73,8.73,0,0,1-8.73-8.73l.08-43.68C50.43,3.92,44.11,9.57,40.84,15a24.53,24.53,0,0,0-3.4,12.63V60.51H42.5V42H57.61Z" transform="translate(-5.79 -2.92)"/><path class="cls-5" d="M185.87,30H170.46V47.56h-4.81V27.72a24.46,24.46,0,0,1,3.4-12.63C172.31,9.68,178.64,4,190.86,4c0,0,0,38.67,0,43.53h-5Zm-14.63-5.58,14.63-.07V9.28C173,9.28,171.24,24.45,171.24,24.45Z" transform="translate(-5.79 -2.92)"/><path class="cls-4" d="M135,13.15V4.07h3.81v8a11.3,11.3,0,0,0,5.94,10.15,24,24,0,0,0,11,2.28V4.07h4.5v25c-8.77,0-14.49-1.59-18.23-3.62A13.93,13.93,0,0,1,135,13.15Z" transform="translate(-5.79 -2.92)"/><path class="cls-4" d="M101.56,47.43s0-40.73,0-43.5h4.5v43.5Z" transform="translate(-5.79 -2.92)"/><polyline class="cls-4" points="99.61 15.52 115.72 1 121.3 1 102.41 19.04"/><polyline class="cls-4" points="100.28 20.07 121.78 31.56 121.78 26.39 100.28 14.31"/><polygon class="cls-4" points="154.39 44.26 154.39 19.89 149.89 19.7 149.89 39.39 129.17 27.35 129.17 32.12 150.33 44.26 154.39 44.26"/><path class="cls-5" d="M156.92,61.25v-5l32.22-.05a8.76,8.76,0,0,0,8.73-8.78V4.19l5,29V48.8a12.31,12.31,0,0,1-12.28,12.34Z" transform="translate(-5.79 -2.92)"/><path class="cls-5" d="M139.63,125l-9.3-28.39V91.3h3.53l8.2,26.19,6.78-23.89c.86-3,5.72-2.66,5.23-1L144.62,125Z" transform="translate(-5.79 -2.92)"/><path class="cls-5" d="M148.62,94.1a6.94,6.94,0,0,1,6.67-5h25.57v5L156.71,94a4,4,0,0,0-3.8,2.85Z" transform="translate(-5.79 -2.92)"/><path class="cls-5" d="M122.92,125l9.29-28.39V91.3h-3.52l-8.21,26.19L113.71,93.6c-.86-3-5.73-2.66-5.24-1L117.93,125Z" transform="translate(-5.79 -2.92)"/><path class="cls-5" d="M114,94.26a6.94,6.94,0,0,0-6.67-5H77.17v4.9l28.78,0A4,4,0,0,1,109.74,97Z" transform="translate(-5.79 -2.92)"/><path class="cls-4" d="M157.2,68.89h28.08V73.1H157.2Z" transform="translate(-5.79 -2.92)"/><path class="cls-4" d="M165.06,103.31v17.22h20.81v4.18l-25.5-.06v-53h4.69Z" transform="translate(-5.79 -2.92)"/><path class="cls-4" d="M77.4,68.89h28.08V73.1H77.4Z" transform="translate(-5.79 -2.92)"/><path class="cls-4" d="M85.27,103.31v17.22h20.8v4.18l-25.49-.06v-53L85.27,71Z" transform="translate(-5.79 -2.92)"/><path class="cls-6" d="M26.4,29.58s5.28-3.25,5.28-11.41c0-.25,0-.51,0-.76C31.39,9.84,26.8,3.92,17,3.92H6V60.54H18.32a13.51,13.51,0,0,0,9.34-3.64A16.42,16.42,0,0,0,33,44.81C33,33.71,26.4,29.58,26.4,29.58Zm-15.06-21h7.07a8.27,8.27,0,0,1,3.77.86c2,1,4.33,3.3,4.33,8.27,0,.42,0,.82,0,1.21-.25,4.5-3.05,7.92-6.32,7.92H11.34ZM27.65,45.76c0,11.53-16.33,9.85-16.33,9.85V32.91h8.49s7.88.36,7.88,11.35C27.69,44.78,27.65,45.28,27.65,45.76Z" transform="translate(-5.79 -2.92)"/><path class="cls-6" d="M26.4,93.73s5.28-3.24,5.28-11.4c0-.26,0-.51,0-.76C31.39,74,26.8,68.08,17,68.08H6v56.61H18.32a13.51,13.51,0,0,0,9.34-3.64A16.41,16.41,0,0,0,33,109C33,97.86,26.4,93.73,26.4,93.73Zm-15.06-21h7.07a8.27,8.27,0,0,1,3.77.86c2,1,4.33,3.3,4.33,8.27,0,.43,0,.83,0,1.21-.25,4.5-3.05,7.92-6.32,7.92H11.34Zm16.31,37.2c0,11.53-16.33,9.84-16.33,9.84V97.06h8.49s7.88.37,7.88,11.35C27.69,108.94,27.65,109.44,27.65,109.92Z" transform="translate(-5.79 -2.92)"/><path class="cls-5" d="M197.87,32.85V4.35h17.68s12.21-.85,12.21,12.83c0,8.73-4.21,12.63-7.25,14.3a9.84,9.84,0,0,1-4.75,1.18Zm5-5.49h12a8.67,8.67,0,0,0,8.62-8c0-.39,0-.8,0-1.22,0-4.59-2.17-6.92-4.18-8.09a8.94,8.94,0,0,0-4.54-1.17h-12Z" transform="translate(-5.79 -2.92)"/><path class="cls-4" d="M227,61h-.2a11.65,11.65,0,0,1-10.32-6.67L206.9,32.83l4.84-.17,8.19,19.42a7.44,7.44,0,0,0,2.9,3.48,7.12,7.12,0,0,0,2.27.91,9.4,9.4,0,0,0,1.91.22Z" transform="translate(-5.79 -2.92)"/><path class="cls-5" d="M77.4,102" transform="translate(-5.79 -2.92)"/><path class="cls-5" d="M77.4,71.62" transform="translate(-5.79 -2.92)"/><path class="cls-4" d="M94.18,44.5s-25,13.85-25-17.67,25-20.28,25-20.28l-2.25,4.8S74,1.82,74,26.73s18.15,13.1,18.15,13.1Z" transform="translate(-5.79 -2.92)"/><path class="cls-7" d="M211,4.36" transform="translate(-5.79 -2.92)"/><path class="cls-8" d="M260,32.67c0,18.86-7.24,25.17-11.72,27.28a11.33,11.33,0,0,1-4.8,1H233.42l4.78-5.36h3A11.74,11.74,0,0,0,252,48.75c1.53-3.47,2.76-8.6,2.76-16.07,0-9.39-2.06-15.24-4.19-18.77A10.39,10.39,0,0,0,241.66,9h-8.79V4.36h10.49a11.42,11.42,0,0,1,4.95,1.09C252.79,7.61,260,14,260,32.68" transform="translate(-5.79 -2.92)"/><rect class="cls-5" x="227.08" y="1.44" width="5.13" height="56.62"/><path class="cls-5" d="M228.6,80.67V68.6h5.24L234,79.27c0,5.74,1.39,11,5.43,13.43a18.2,18.2,0,0,0,10.85,3V68.6H255c0,3.71.13,33.21.13,33.21-9.7,0-14.63-2.11-18.76-4.81C231.56,93.88,228.61,87.54,228.6,80.67Z" transform="translate(-5.79 -2.92)"/><path class="cls-5" d="M255.07,124.71V68.57h-5.58v51.55l-11.61,0a4.3,4.3,0,0,1-3.66-2L228.83,104l-5,0,6.36,16.76a7.51,7.51,0,0,0,6.59,3.91Z" transform="translate(-5.79 -2.92)"/></svg>